<svg xmlns="http://www.w3.org/2000/svg" width="512" height="512" viewBox="0 0 512 512"><circle cx="256" cy="256" r="240" fill="#0D1117"/><circle cx="256" cy="256" r="220" fill="#161B22"/><g transform="translate(256, 256)"><line x1="-80" x2="-80" y1="-100" y2="100" stroke="#58A6FF" stroke-linecap="round" stroke-width="16"/><line x1="-80" x2="40" y1="0" y2="0" stroke="#3FB950" stroke-linecap="round" stroke-width="16"/><line x1="40" x2="40" y1="0" y2="-60" stroke="#3FB950" stroke-linecap="round" stroke-width="16"/><path fill="none" stroke="#F778BA" stroke-linecap="round" stroke-width="12" d="M 40 -60 Q 10 -80, -80 -100"/><circle cx="-80" cy="-100" r="18" fill="#58A6FF" stroke="#0D1117" stroke-width="4"/><circle cx="-80" cy="0" r="18" fill="#58A6FF" stroke="#0D1117" stroke-width="4"/><circle cx="-80" cy="100" r="18" fill="#58A6FF" stroke="#0D1117" stroke-width="4"/><circle cx="40" cy="0" r="18" fill="#3FB950" stroke="#0D1117" stroke-width="4"/><circle cx="40" cy="-60" r="18" fill="#3FB950" stroke="#0D1117" stroke-width="4"/><g><text x="0" y="0" fill="#F778BA" font-family="monospace" font-size="60" font-weight="bold" text-anchor="middle" transform="translate(0, -140)">&gt;_</text></g><g transform="translate(80, 80) scale(0.8)"><circle cx="0" cy="0" r="35" fill="#58A6FF"/><circle cx="-12" cy="-8" r="6" fill="#0D1117"/><circle cx="12" cy="-8" r="6" fill="#0D1117"/><path fill="none" stroke="#0D1117" stroke-linecap="round" stroke-width="3" d="M -15 8 Q 0 15, 15 8"/></g></g><circle cx="256" cy="256" r="240" fill="none" stroke="#58A6FF" stroke-width="4" opacity=".3"/></svg>